PathFileType	4	(X/Y/Z)	Patient4_TMGait_0pt2_03_right_04.trc.trc
DataRate	CameraRate	NumFrames	NumMarkers	Units	OrigDataRate	OrigDataStartFrame	OrigNumFrames
44.728434504792	44.728434504792	5	33	mm	44.728434504792	89	       141
Frame#	Time	Sacral			L.Shoulder			Chest			R.Shoulder			Neck			R.ASIS			L.ASIS			R.Thigh.Superior			R.Thigh.Lateral			R.Thigh.Inferior			R.Patella			L.Thigh.Superior			L.Thigh.Lateral			L.Thigh.Inferior			L.Patella			L.Shank.Superior			L.Shank.Lateral			L.Shank.Inferior			R.Shank.Superior			R.Shank.Lateral			R.Shank.Inferior			R.Heel			R.Midfoot.Superior			R.Midfoot.Lateral			R.Toe			L.Heel			L.Midfoot.Lateral			L.Midfoot.Superior			L.Toe			L.Elbow			L.Wrist			R.Elbow			R.Wrist			
		X1	Y1	Z1	X2	Y2	Z2	X3	Y3	Z3	X4	Y4	Z4	X5	Y5	Z5	X6	Y6	Z6	X7	Y7	Z7	X8	Y8	Z8	X9	Y9	Z9	X10	Y10	Z10	X11	Y11	Z11	X12	Y12	Z12	X13	Y13	Z13	X14	Y14	Z14	X15	Y15	Z15	X16	Y16	Z16	X17	Y17	Z17	X18	Y18	Z18	X19	Y19	Z19	X20	Y20	Z20	X21	Y21	Z21	X22	Y22	Z22	X23	Y23	Z23	X24	Y24	Z24	X25	Y25	Z25	X26	Y26	Z26	X27	Y27	Z27	X28	Y28	Z28	X29	Y29	Z29	X30	Y30	Z30	X31	Y31	Z31	X32	Y32	Z32	X33	Y33	Z33	

89	10.277428571429	857.575194206560	1010.097549050260	470.114692730573	992.013606547640	1424.944014810160	244.391595093584	1131.649504660273	1355.628461885549	374.736112037734	1101.798200754737	1439.825119559704	559.159420549440	1017.400902869711	1492.627006739035	396.588604758940	1100.235355678875	935.553411543953	545.122569354556	1039.989376548800	957.269709026965	277.403367929196	1095.508015359295	722.952806263736	522.854938561523	1003.435184385362	627.690763478971	599.636227038446	1056.448414495712	560.472461203783	515.138117527014	1037.904174982874	467.258979911603	529.085689198250	1112.824195824902	764.204705113224	310.511136238670	1042.135902665151	633.868328941833	250.229546460846	1142.283057493597	571.088455316838	306.567179758443	1153.028037007084	500.198649715526	311.632871413264	1130.830757362691	426.349360317549	303.665164069601	1047.314502117528	306.924677938415	254.734377337023	1110.941035258159	197.347279819075	317.903184654456	981.275384548648	391.667232564366	543.431689492764	888.045872424211	317.727686696529	619.510793873546	891.554685742435	211.812631479884	559.923961662867	712.011028401054	79.954682928152	552.947595112086	892.614556204172	100.502255051065	573.059999883182	798.931204919354	55.169073783398	618.838764644675	1002.117871742326	36.440220974436	589.939742605383	993.620946929251	38.705532707295	359.723868372314	1065.290735676658	36.141800480662	277.125314726165	1149.174570641660	97.560738541271	301.453613779567	1276.196278559072	46.991168486182	268.874900722680	877.466832194990	1083.409149484095	164.262343980526	887.607620096999	822.043940299956	179.531276100189	1291.792434963959	1152.726658359737	653.143062989475	1530.010920238597	1194.401704893166	564.419550520002	
90	10.299785714286	857.581076216303	1011.238332515543	462.340991211726	996.037825031069	1425.699733877237	237.733492618125	1133.319206941305	1356.492486417185	370.518000351920	1100.513567839678	1440.760591070537	554.483521284980	1018.963201413773	1493.674298376448	390.305088855041	1099.231575649935	937.021409461905	540.445215976029	1042.220335853922	957.677961736713	272.129623837347	1096.520271330847	724.560155265854	519.879631423688	1004.556447531914	629.262030470705	596.516440469173	1059.663676724410	561.538547518610	513.297759059764	1041.594551683784	467.384007623363	528.312767732298	1113.407586597110	763.723991476554	305.877003302679	1041.677042827739	633.721569968174	246.238461343925	1140.951424035756	570.475077063359	303.213947469212	1151.052132940542	499.600312839851	308.913330590670	1128.611116483440	425.714934714835	301.364961988372	1044.736918425025	306.387686260755	252.904529608846	1107.427890849159	196.972194601372	317.185298960290	983.608829654239	392.902134756815	542.466511611751	888.467086454511	321.294467351323	618.392680920115	891.339876047695	214.537442562933	559.959617124167	709.788548340281	85.912540374469	553.087930885834	890.776874560385	101.245698499445	573.414227301662	795.805727747869	58.346797669467	618.861983592051	997.756884261884	35.915142339394	589.759118258014	989.171818877783	38.679654269769	359.721802241927	1060.818110105717	36.106658724177	277.087825982293	1144.785421484891	97.413859948475	301.432378081683	1271.808514174167	46.633618828234	268.839975150663	892.872781704524	1080.858331704488	152.844080673044	911.278593364493	819.969010987471	165.690526097239	1275.194687627344	1142.414363956481	653.322881095902	1517.987802423274	1158.826547323372	570.525297049773	
91	10.322142857143	857.434008181840	1012.191578867735	454.635923931122	1000.025298023505	1426.392774797717	231.241094432261	1134.834370429662	1357.243398047483	366.466173368522	1099.002640668672	1441.497025796975	549.933955794691	1020.407520046574	1494.588534906670	384.193788438926	1098.062450065904	938.391021347765	535.767985651332	1044.274700483706	958.006247969951	266.934048693996	1098.300075520968	726.283401681755	516.723504755100	1006.990555402537	630.575730397432	593.196994509566	1064.422763292545	562.627378188264	511.144945511325	1047.098499652347	467.275609283397	527.286250696411	1113.857549738977	763.160417233018	301.247100838687	1041.104538178745	633.528294865819	242.251514952982	1139.480906824350	569.830121519265	299.868941388044	1148.940547572065	499.002175584941	306.190231769936	1126.282587222368	425.063698156511	299.048236673825	1042.093363005465	305.805373960037	251.027208695432	1103.909413154038	196.605196589045	316.453335344261	987.480107967981	394.030429863580	541.247642751737	890.360289088784	325.212849785074	617.136116145710	892.045828388246	217.706687727673	559.919298711742	708.170140845464	93.337257168886	553.409658480693	889.361774389608	102.541328014495	573.793505873695	793.046023059692	62.634245289260	618.985682895293	993.304467269845	35.352141555679	589.543174193130	984.719466106943	38.648947556121	359.705864074701	1056.342981621079	36.056815469427	277.032756730094	1140.389845729259	97.270368315570	301.386348197951	1267.414569896189	46.308680136471	268.803192737815	909.154502747954	1078.595485198075	141.535845847248	936.518097324396	818.567084132424	152.586470946213	1257.182528126608	1132.405451648503	653.417395866639	1501.739065598506	1121.362147246966	577.434497291142	
92	10.344500000000	857.104896747570	1012.882195917799	447.061777462446	1003.922098257507	1426.975838331779	225.000107629659	1136.153091930418	1357.827896216578	362.651156161588	1097.229574888815	1441.979843195771	545.584368471686	1021.695710573866	1495.314097106835	378.346803097084	1096.742330558635	939.588869469963	531.129100778379	1046.113089025782	958.228615400766	261.845238474709	1100.946211956860	728.130098315026	513.280548420682	1010.951079394583	631.595000960110	589.591383682929	1070.882112431865	563.764733591654	508.527240621811	1054.600010593431	466.968722762802	525.827532986544	1114.201459876015	762.510732602582	296.639147382097	1040.502083383638	633.266343450664	238.283687855811	1137.986266880170	569.154599006289	296.561772851898	1146.829709990808	498.389737444921	303.486555186990	1123.952097435191	424.378074084243	296.733294223749	1039.453648494682	305.186653422124	249.109027984241	1100.410162207481	196.235612147733	315.716287531709	993.064067207777	395.049656918493	539.645949926858	893.947353519482	329.537584413747	615.665116794128	893.772648844811	221.419360393922	559.735508524091	707.251946615971	102.504666198847	553.945156506448	888.411645111299	104.630133018999	574.188188152544	790.738853687315	68.331332556299	619.242179700239	988.776600507816	34.811978841683	589.319247750338	980.264825546926	38.613419109821	359.674684448616	1051.866910892496	35.993487549319	276.960031707988	1135.984406536125	97.135846895190	301.317361674443	1263.012864551822	46.033583834656	268.768190550078	926.133147594124	1076.705615878826	130.439672438757	963.122111539862	817.966591143134	140.268892565716	1237.978737347417	1122.903943086314	653.317882777474	1480.910108512323	1082.767113791459	584.978764682455	
93	10.366857142857	856.573198075815	1013.243264429253	439.684400014427	1007.664205392099	1427.402765768216	219.101375567018	1137.232282490182	1358.201135560416	359.145844932576	1095.165438044931	1442.164028909191	541.514009225910	1022.787962731220	1495.801084891950	372.855685313772	1095.299245554520	940.547045476577	526.566457648427	1047.703620790749	958.321243164755	256.886513788759	1104.489113115610	730.109290729125	509.445353903807	1016.551727002243	632.320648832245	585.622356214175	1079.066621921774	564.993028850119	505.300806010027	1064.139564830837	466.536610393163	523.759746362499	1114.473519279738	761.774057685268	292.064216273830	1039.954036291926	632.909190191530	234.349668664501	1136.589715857027	568.444978664212	293.315969820746	1144.863087292355	497.743083179938	300.820313412115	1121.730859506223	423.636529219566	294.437914846045	1036.886408093290	304.539673361531	247.158126744663	1096.949569928176	195.849543781972	314.980267348018	1000.419932813247	395.980872177669	537.546349659335	899.337053664034	334.313227193971	613.904380123902	896.561093014557	225.754410044285	559.342266473687	707.104076847713	113.569894639610	554.698863230322	887.959843700436	107.732751538736	574.586331328887	788.968224534796	75.663203395958	619.652086972102	984.226034098534	34.390745186363	589.128088560056	975.806177534362	38.573353382106	359.627893307659	1047.388469117122	35.918296121628	276.870472279621	1131.564182811255	97.013920497949	301.227731773950	1258.599834181952	45.819042228841	268.737796640757	943.596585001195	1075.248212904964	119.681579387012	990.826511236983	818.273920017166	128.767014309967	1217.823055221167	1114.084318736362	652.962552073970	1455.310815403309	1043.933150743450	592.958540267765	
